<?xml version="1.0" encoding="UTF-8"?><svg id="Layer_1" xmlns="http://www.w3.org/2000/svg" viewBox="0 0 228 229"><defs><style>.cls-1{fill:#47607f;}.cls-1,.cls-2,.cls-3{stroke-width:0px;}.cls-2{fill:#687d96;}.cls-3{fill:#fff;}</style></defs><rect class="cls-3" width="229" height="229"/><path class="cls-1" d="m113.99.08C50.57.01,1.52,52.12.18,111.04c-1.47,64.67,49.63,117.8,113.74,117.87,62.44.07,114.09-51.61,113.93-113.99C227.69,51.34,176.84.05,113.99.08Zm-.12,223.1c-60.16-.14-109.44-49.87-107.95-112.21C7.24,55.69,53.12,5.78,114.04,5.83c59.93-.02,108.18,48.89,108.01,109.5-.16,59.26-49.1,108-108.17,107.86Z"/><path class="cls-1" d="m96.64,87.21h5.65v17.68h-17.31v-29.73c1.42,0,2.75,0,4.08,0,12.85,0,25.7.02,38.55-.01,5.23-.01,8.99-3.36,9.39-8.21.4-4.88-3.13-9.41-8.43-9.54-12.44-.3-24.89-.1-37.56-.1v5.91c1.11,0,2.3,0,3.49,0,10.35,0,20.71,0,31.06,0,.87,0,1.97-.31,2.57.09,1.13.76,2.65,1.89,2.72,2.95.07.89-1.62,2.01-2.68,2.84-.4.31-1.21.13-1.83.13-13.22,0-26.45,0-39.67,0-.48,0-.95-.1-1.63-.17v-17.4c.64-.11,1.34-.34,2.04-.34,13.47-.02,26.95-.12,40.42.01,11.37.11,18.58,10.52,14.3,20.67-2.5,5.93-7.17,9.14-13.71,9.17-11.1.04-22.2-.02-33.31-.04-1.22,0-2.43,0-3.83,0v17.68h5.7v-11.59Z"/><path class="cls-1" d="m40.96,127.36c1.47-.25,3.53-.43,6.44-.43s5.03.56,6.44,1.67c1.34,1.05,2.25,2.79,2.25,4.84s-.69,3.78-1.94,4.96c-1.63,1.52-4.03,2.2-6.85,2.2-.62,0-1.19-.03-1.63-.09v7.47h-4.72v-20.62Zm4.72,9.49c.41.09.91.12,1.59.12,2.53,0,4.1-1.27,4.1-3.41,0-1.92-1.34-3.07-3.72-3.07-.97,0-1.63.09-1.97.19v6.17Z"/><path class="cls-1" d="m64.53,127.08v8.03h7.85v-8.03h4.75v20.9h-4.75v-8.74h-7.85v8.74h-4.78v-20.9h4.78Z"/><path class="cls-1" d="m86.7,127.08v20.9h-4.78v-20.9h4.78Z"/><path class="cls-1" d="m91.45,127.08h4.78v16.93h8.38v3.97h-13.16v-20.9Z"/><path class="cls-1" d="m114.98,127.36c1.53-.25,3.81-.43,6.35-.43,3.13,0,5.32.46,6.82,1.64,1.25.99,1.94,2.45,1.94,4.37,0,2.67-1.91,4.5-3.72,5.15v.09c1.47.59,2.28,1.98,2.81,3.91.66,2.36,1.31,5.08,1.72,5.89h-4.88c-.34-.59-.84-2.29-1.47-4.87-.56-2.6-1.47-3.32-3.41-3.35h-1.44v8.22h-4.72v-20.62Zm4.72,8.99h1.88c2.38,0,3.78-1.18,3.78-3.01,0-1.92-1.31-2.88-3.5-2.91-1.16,0-1.81.09-2.16.15v5.77Z"/><path class="cls-1" d="m146.68,139.15h-7.75v4.96h8.66v3.88h-13.44v-20.9h13.01v3.88h-8.22v4.34h7.75v3.84Z"/><path class="cls-1" d="m164,139.15h-7.75v4.96h8.66v3.88h-13.44v-20.9h13.01v3.88h-8.22v4.34h7.75v3.84Z"/><path class="cls-1" d="m168.78,127.36c1.75-.28,4.03-.43,6.44-.43,4,0,6.6.71,8.63,2.23,2.19,1.61,3.56,4.19,3.56,7.88,0,4-1.47,6.76-3.5,8.46-2.22,1.83-5.6,2.7-9.72,2.7-2.47,0-4.22-.15-5.41-.31v-20.53Zm4.78,17.05c.41.09,1.06.09,1.66.09,4.31.03,7.13-2.33,7.13-7.32.03-4.34-2.53-6.64-6.63-6.64-1.06,0-1.75.09-2.16.19v13.67Z"/><path class="cls-2" d="m54.55,169.57c.47.24,1.2.48,1.94.48.81,0,1.23-.33,1.23-.84s-.37-.76-1.3-1.09c-1.29-.45-2.13-1.16-2.13-2.29,0-1.32,1.1-2.33,2.93-2.33.87,0,1.52.18,1.98.39l-.39,1.42c-.31-.15-.86-.37-1.62-.37s-1.13.34-1.13.75c0,.5.44.71,1.44,1.09,1.37.51,2.01,1.22,2.01,2.31,0,1.3-1,2.4-3.13,2.4-.89,0-1.76-.23-2.2-.47l.36-1.45Z"/><path class="cls-2" d="m67.8,167.42c0,2.54-1.54,4.08-3.81,4.08s-3.65-1.74-3.65-3.95c0-2.32,1.48-4.06,3.77-4.06s3.68,1.78,3.68,3.92Zm-5.6.1c0,1.52.71,2.59,1.89,2.59s1.86-1.13,1.86-2.63c0-1.39-.67-2.59-1.88-2.59s-1.88,1.13-1.88,2.63Z"/><path class="cls-2" d="m68.94,163.62h4.74v1.44h-2.98v1.77h2.78v1.43h-2.78v3.12h-1.76v-7.75Z"/><path class="cls-2" d="m76.5,165.09h-2.08v-1.47h5.96v1.47h-2.12v6.28h-1.76v-6.28Z"/><path class="cls-2" d="m82.88,171.38l-1.84-7.75h1.88l.59,3.2c.17.92.33,1.92.46,2.7h.02c.13-.84.31-1.77.51-2.73l.66-3.18h1.86l.62,3.27c.17.91.3,1.74.41,2.6h.02c.12-.86.29-1.77.45-2.69l.63-3.18h1.78l-2,7.75h-1.9l-.66-3.34c-.15-.78-.28-1.51-.37-2.39h-.02c-.14.87-.26,1.61-.45,2.39l-.74,3.34h-1.92Z"/><path class="cls-2" d="m93.02,169.39l-.55,1.99h-1.82l2.37-7.75h2.3l2.4,7.75h-1.89l-.6-1.99h-2.22Zm1.97-1.31l-.48-1.65c-.14-.46-.28-1.04-.39-1.5h-.02c-.12.46-.23,1.05-.36,1.5l-.46,1.65h1.71Z"/><path class="cls-2" d="m98.75,163.72c.56-.09,1.4-.16,2.34-.16,1.15,0,1.96.17,2.51.61.46.37.71.91.71,1.62,0,.99-.7,1.67-1.37,1.91v.03c.54.22.84.74,1.04,1.45.24.87.48,1.89.63,2.19h-1.79c-.13-.22-.31-.85-.54-1.81-.21-.97-.54-1.23-1.25-1.24h-.53v3.05h-1.74v-7.65Zm1.74,3.34h.69c.87,0,1.39-.44,1.39-1.12,0-.71-.48-1.07-1.29-1.08-.43,0-.67.03-.79.06v2.14Z"/><path class="cls-2" d="m110.19,168.1h-2.85v1.84h3.19v1.44h-4.95v-7.75h4.79v1.44h-3.03v1.61h2.85v1.43Z"/><path class="cls-2" d="m114.04,163.72c.64-.1,1.48-.16,2.37-.16,1.47,0,2.43.26,3.18.83.81.6,1.31,1.55,1.31,2.92,0,1.48-.54,2.51-1.29,3.14-.82.68-2.06,1-3.58,1-.91,0-1.55-.06-1.99-.11v-7.62Zm1.76,6.33c.15.04.39.04.61.04,1.59.01,2.62-.86,2.62-2.72.01-1.61-.93-2.46-2.44-2.46-.39,0-.64.03-.79.07v5.07Z"/><path class="cls-2" d="m126.65,168.1h-2.85v1.84h3.19v1.44h-4.95v-7.75h4.79v1.44h-3.03v1.61h2.85v1.43Z"/><path class="cls-2" d="m130.09,171.38l-2.49-7.75h1.92l.94,3.28c.26.92.51,1.81.69,2.77h.04c.2-.93.44-1.85.7-2.74l.99-3.31h1.86l-2.61,7.75h-2.05Z"/><path class="cls-2" d="m140.18,168.1h-2.85v1.84h3.19v1.44h-4.95v-7.75h4.79v1.44h-3.03v1.61h2.85v1.43Z"/><path class="cls-2" d="m141.71,163.62h1.76v6.28h3.08v1.47h-4.84v-7.75Z"/><path class="cls-2" d="m154.25,167.42c0,2.54-1.54,4.08-3.81,4.08s-3.65-1.74-3.65-3.95c0-2.32,1.48-4.06,3.77-4.06s3.68,1.78,3.68,3.92Zm-5.6.1c0,1.52.71,2.59,1.89,2.59s1.86-1.13,1.86-2.63c0-1.39-.67-2.59-1.88-2.59s-1.88,1.13-1.88,2.63Z"/><path class="cls-2" d="m155.39,163.72c.54-.09,1.3-.16,2.37-.16s1.85.21,2.37.62c.5.39.83,1.04.83,1.79s-.25,1.4-.71,1.84c-.6.56-1.48.82-2.52.82-.23,0-.44-.01-.6-.03v2.77h-1.74v-7.65Zm1.74,3.52c.15.03.33.05.59.05.93,0,1.51-.47,1.51-1.27,0-.71-.5-1.14-1.37-1.14-.36,0-.6.04-.72.07v2.29Z"/><path class="cls-2" d="m166.69,168.1h-2.85v1.84h3.19v1.44h-4.95v-7.75h4.79v1.44h-3.03v1.61h2.85v1.43Z"/><path class="cls-2" d="m168.21,163.72c.56-.09,1.4-.16,2.33-.16,1.15,0,1.96.17,2.51.61.46.37.71.91.71,1.62,0,.99-.7,1.67-1.37,1.91v.03c.54.22.84.74,1.04,1.45.24.87.48,1.89.63,2.19h-1.79c-.13-.22-.31-.85-.54-1.81-.21-.97-.54-1.23-1.25-1.24h-.53v3.05h-1.74v-7.65Zm1.74,3.34h.69c.88,0,1.39-.44,1.39-1.12,0-.71-.48-1.07-1.29-1.08-.42,0-.67.03-.79.06v2.14Z"/></svg>